<?xml version="1.0" standalone="no"?>
<!DOCTYPE svg PUBLIC "-//W3C//DTD SVG 20010904//EN"
 "http://www.w3.org/TR/2001/REC-SVG-20010904/DTD/svg10.dtd">
<svg version="1.0" xmlns="http://www.w3.org/2000/svg"
 width="512.000000pt" height="512.000000pt" viewBox="0 0 512.000000 512.000000"
 preserveAspectRatio="xMidYMid meet">
<metadata>
Created by potrace 1.11, written by Peter Selinger 2001-2013
</metadata>
<g transform="translate(0.000000,512.000000) scale(0.100000,-0.100000)"
fill="#000000" stroke="none">
<path d="M2470 4394 c-79 -9 -230 -37 -300 -56 -141 -36 -403 -145 -480 -198
-14 -10 -59 -39 -100 -66 -140 -89 -342 -276 -451 -419 -440 -577 -520 -1354
-205 -1997 266 -543 745 -915 1346 -1045 116 -25 143 -27 365 -27 208 -1 257
2 365 22 110 20 417 113 430 130 3 4 43 26 90 49 82 41 265 157 296 187 8 9
34 29 57 46 69 50 219 208 303 320 251 332 376 711 377 1140 0 187 -10 286
-49 445 -33 139 -35 145 -45 139 -5 -3 -6 1 -3 9 12 32 -100 280 -195 434
-122 194 -304 389 -498 530 -233 170 -518 289 -823 343 -66 11 -415 22 -480
14z m772 -1124 l-3 -180 -364 0 -365 0 0 -220 0 -220 340 3 340 2 0 -177 0
-178 -340 0 -340 0 -2 -382 -3 -383 -218 -5 -217 -5 0 963 0 962 588 0 587 0
-3 -180z m-2315 -1542 c-3 -8 -6 -5 -6 6 -1 11 2 17 5 13 3 -3 4 -12 1 -19z"/>
</g>
</svg>
